<svg width="70" height="54" viewBox="0 0 70 54" fill="none" xmlns="http://www.w3.org/2000/svg">
<circle cx="42.5278" cy="27" r="27" fill="#CC0000"/>
<path d="M53.3278 27L17.3278 27" stroke="white" stroke-width="2.25564" stroke-linecap="square" stroke-linejoin="round"/>
<path d="M1.12782 28.1278C0.504945 28.1278 3.33786e-06 27.6229 3.33786e-06 27C3.33786e-06 26.3771 0.504945 25.8722 1.12782 25.8722L1.12782 27L1.12782 28.1278ZM15.5278 25.8722H16.6556V28.1278H15.5278V27V25.8722ZM1.12782 27L1.12782 25.8722H15.5278V27V28.1278H1.12782L1.12782 27Z" fill="#CC0000"/>
<path d="M47.0279 19.5005C47.0279 19.5005 54.5279 25.0241 54.5279 27.0005C54.5279 28.9769 47.0279 34.5005 47.0279 34.5005" fill="white"/>
<path d="M47.0279 19.5005C47.0279 19.5005 54.5279 25.0241 54.5279 27.0005C54.5279 28.9769 47.0279 34.5005 47.0279 34.5005" stroke="white" stroke-width="2.25564" stroke-linecap="round" stroke-linejoin="round"/>
</svg>
